<svg width="50" height="50" viewBox="0 0 50 50" fill="none" xmlns="http://www.w3.org/2000/svg">
<rect width="50" height="50" rx="25" fill="#1D00B3"/>
<path d="M17.7753 43.5817C17.7272 43.7967 17.7658 43.99 17.8913 44.1616C18.0151 44.3328 18.2076 44.4628 18.4687 44.5517C18.6523 44.6143 18.8191 44.6402 18.9692 44.6295C19.1193 44.6188 19.2453 44.5779 19.3471 44.5066C19.4489 44.4353 19.5212 44.3389 19.5641 44.2176C19.5984 44.1162 19.6052 44.0205 19.5846 43.9305C19.5623 43.8399 19.5197 43.7547 19.4566 43.675C19.3931 43.5968 19.3182 43.5236 19.2319 43.4554C19.1455 43.3871 19.0566 43.3241 18.9649 43.2664L18.5478 42.9971C18.3787 42.8919 18.2218 42.774 18.0772 42.6435C17.9309 42.5124 17.8093 42.3685 17.7124 42.2119C17.6138 42.0547 17.5515 41.8842 17.5255 41.7005C17.4995 41.5168 17.5221 41.3197 17.5934 41.1091C17.69 40.8241 17.8477 40.5979 18.0668 40.4306C18.2853 40.2648 18.5529 40.1679 18.8695 40.1397C19.1841 40.1127 19.536 40.1654 19.9252 40.298C20.3035 40.4269 20.612 40.5973 20.8508 40.8094C21.088 41.0209 21.2469 41.2657 21.3274 41.5439C21.4064 41.8216 21.3975 42.1241 21.3007 42.4514L20.4343 42.1563C20.479 41.9826 20.4746 41.8238 20.4208 41.6802C20.3671 41.5365 20.2761 41.4118 20.1477 41.3063C20.0177 41.2002 19.8609 41.1159 19.6774 41.0534C19.4859 40.9881 19.3085 40.9595 19.1452 40.9675C18.9798 40.9764 18.8385 41.0184 18.7213 41.0933C18.6036 41.1697 18.5204 41.2774 18.4716 41.4162C18.4303 41.5434 18.4321 41.6606 18.477 41.7677C18.5214 41.8764 18.5999 41.9809 18.7124 42.081C18.8229 42.1822 18.9577 42.2846 19.1167 42.3883L19.6215 42.7192C19.987 42.9585 20.2507 43.2223 20.4125 43.5105C20.5722 43.7998 20.5931 44.1186 20.4751 44.467C20.378 44.7536 20.2155 44.9781 19.9875 45.1406C19.7579 45.3026 19.4885 45.3972 19.1792 45.4243C18.8695 45.453 18.5445 45.4094 18.2042 45.2935C17.8593 45.176 17.5774 45.0128 17.3586 44.8041C17.1377 44.5964 16.9889 44.3611 16.912 44.0983C16.8345 43.837 16.8398 43.5686 16.9279 43.2931L17.7753 43.5817Z" fill="#E5E0FF"/>
<path d="M15.558 38.264L11.973 41.9412L11.3087 41.2899L12.8264 39.7332L11.1272 38.067L9.60953 39.6238L8.94346 38.9707L12.5284 35.2934L13.1945 35.9465L11.6716 37.5086L13.3708 39.1747L14.8937 37.6126L15.558 38.264Z" fill="#E5E0FF"/>
<path d="M6.80235 28.8943C7.32743 28.7197 7.80969 28.6685 8.24914 28.7408C8.68648 28.8121 9.06019 28.9838 9.37026 29.2559C9.67982 29.5265 9.90518 29.8752 10.0464 30.3022C10.1875 30.7292 10.2149 31.1447 10.1284 31.5487C10.0398 31.9516 9.84159 32.3135 9.53388 32.6343C9.22406 32.954 8.80741 33.201 8.28392 33.3751C7.75885 33.5497 7.27764 33.6014 6.84031 33.5301C6.40085 33.4578 6.02635 33.2864 5.7168 33.0158C5.40672 32.7437 5.1811 32.3941 5.03992 31.9672C4.89874 31.5402 4.87167 31.1255 4.9587 30.7231C5.0452 30.319 5.24336 29.9572 5.55318 29.6374C5.86089 29.3166 6.27728 29.0689 6.80235 28.8943ZM7.09599 29.7824C6.72638 29.9053 6.43382 30.0669 6.21832 30.2672C6.00071 30.4664 5.86045 30.6892 5.79755 30.9356C5.73306 31.1826 5.74464 31.4386 5.83229 31.7036C5.91993 31.9687 6.06318 32.1809 6.26202 32.3403C6.45927 32.5002 6.70476 32.5956 6.99847 32.6266C7.29007 32.6564 7.62067 32.6099 7.99029 32.487C8.3599 32.3641 8.65351 32.203 8.87112 32.0038C9.08662 31.8035 9.22662 31.5799 9.2911 31.3329C9.35401 31.0865 9.34163 30.8308 9.25399 30.5657C9.16634 30.3006 9.02389 30.0882 8.82664 29.9283C8.6278 29.7689 8.38257 29.6742 8.09098 29.6444C7.79727 29.6134 7.4656 29.6594 7.09599 29.7824Z" fill="#E5E0FF"/>
<path d="M9.00064 25.0238L3.92798 24.2222L4.07236 23.3032L6.21983 23.6425L6.58916 21.2916L4.4417 20.9523L4.58648 20.0308L9.65914 20.8323L9.51437 21.7538L7.35947 21.4133L6.99014 23.7642L9.14503 24.1047L9.00064 25.0238Z" fill="#E5E0FF"/>
<path d="M11.3105 17.127L10.7364 17.9372L7.59965 13.4814L8.26368 12.5443L13.4926 14.0478L12.9184 14.858L8.80092 13.6078L8.77772 13.6405L11.3105 17.127ZM9.68963 15.9317L11.2555 13.722L11.864 14.1558L10.2982 16.3654L9.68963 15.9317Z" fill="#E5E0FF"/>
<path d="M16.9439 7.5456C16.8434 7.4459 16.7355 7.36624 16.6203 7.30663C16.5058 7.24475 16.3855 7.204 16.2595 7.18438C16.1349 7.16397 16.0061 7.16763 15.8731 7.19537C15.7393 7.22163 15.6047 7.27113 15.4692 7.34386C15.2261 7.4743 15.0422 7.65172 14.9176 7.87612C14.7929 8.10051 14.7394 8.36069 14.7571 8.65665C14.7755 8.95035 14.8752 9.26681 15.0562 9.60604C15.2387 9.94822 15.4472 10.2092 15.6814 10.3889C15.9156 10.5687 16.1616 10.6691 16.4192 10.6902C16.676 10.7099 16.9311 10.6517 17.1844 10.5158C17.4142 10.3924 17.5895 10.2415 17.7102 10.0628C17.8323 9.88344 17.8958 9.68811 17.9006 9.47685C17.9045 9.26413 17.8479 9.04788 17.7306 8.82812L17.9316 8.75727L16.7031 9.41658L16.3607 8.775L18.1968 7.78958L18.4872 8.33383C18.6942 8.72173 18.7908 9.10154 18.7769 9.47327C18.763 9.84499 18.6527 10.185 18.4458 10.4934C18.2382 10.8002 17.9473 11.054 17.5731 11.2548C17.1562 11.4786 16.7402 11.5814 16.325 11.5632C15.9106 11.5428 15.5225 11.4068 15.1608 11.155C14.7997 10.901 14.4917 10.5351 14.2367 10.0572C14.0416 9.69142 13.9188 9.33706 13.8684 8.99412C13.8196 8.65038 13.8351 8.32802 13.9152 8.02703C13.9944 7.72457 14.1321 7.45339 14.3281 7.21349C14.5233 6.97211 14.7689 6.77197 15.065 6.61307C15.3154 6.47868 15.5686 6.39025 15.8245 6.34779C16.0796 6.30385 16.3269 6.30393 16.5664 6.34802C16.8074 6.39132 17.0316 6.47591 17.239 6.60177C17.4464 6.72764 17.6264 6.89283 17.7792 7.09736L16.9439 7.5456Z" fill="#E5E0FF"/>
<path d="M22.566 9.3276L22.4897 4.19256L23.42 4.17867L23.4522 6.35254L25.8317 6.317L25.7994 4.14314L26.7321 4.12921L26.8084 9.26425L25.8757 9.27818L25.8433 7.09679L23.4638 7.13232L23.4962 9.31371L22.566 9.3276Z" fill="#E5E0FF"/>
<path d="M38.4988 10.8632C38.6218 10.6803 38.6561 10.4861 38.6017 10.2805C38.5486 10.0759 38.4167 9.88464 38.2059 9.70668C38.0578 9.58157 37.9119 9.49666 37.7682 9.45195C37.6246 9.40725 37.4924 9.39957 37.3717 9.42894C37.251 9.4583 37.1487 9.52174 37.0646 9.61925C36.9958 9.70119 36.9547 9.78789 36.9412 9.87935C36.929 9.97188 36.9377 10.0668 36.9674 10.164C36.9981 10.26 37.0413 10.3555 37.0968 10.4506C37.1524 10.5456 37.2123 10.6367 37.2767 10.7238L37.5671 11.1267C37.6863 11.2863 37.7895 11.4533 37.8767 11.6276C37.9652 11.803 38.0261 11.9813 38.0594 12.1626C38.094 12.345 38.09 12.5266 38.0475 12.7072C38.0049 12.8879 37.9122 13.0634 37.7692 13.2337C37.5757 13.4642 37.3466 13.6175 37.0818 13.6937C36.8181 13.7686 36.5338 13.7615 36.2288 13.6724C35.9261 13.5831 35.6176 13.4058 35.3034 13.1405C34.9982 12.8827 34.7729 12.6115 34.6276 12.327C34.4837 12.0435 34.4248 11.7574 34.4509 11.4688C34.4784 11.1813 34.5967 10.9027 34.8057 10.6329L35.5051 11.2234C35.4003 11.369 35.3467 11.5185 35.3445 11.672C35.3423 11.8255 35.3817 11.9747 35.4629 12.1199C35.5453 12.2661 35.6606 12.4017 35.8088 12.5268C35.9634 12.6573 36.1181 12.7486 36.273 12.8007C36.4303 12.8525 36.5771 12.8649 36.7134 12.8377C36.8508 12.8093 36.9674 12.7393 37.0632 12.6277C37.148 12.5242 37.1889 12.4144 37.186 12.2982C37.1842 12.1807 37.1492 12.0548 37.0808 11.9205C37.0147 11.7859 36.9265 11.6414 36.8161 11.4869L36.4664 10.9947C36.2131 10.6386 36.0636 10.2968 36.0177 9.96927C35.9742 9.64151 36.0706 9.3368 36.3071 9.05512C36.5017 8.82337 36.7346 8.67329 37.006 8.60486C37.2787 8.53751 37.5639 8.5475 37.8616 8.63482C38.1604 8.72087 38.4472 8.87984 38.7218 9.11173C39.0002 9.34685 39.2034 9.60151 39.3311 9.8757C39.4613 10.1497 39.5143 10.4232 39.4904 10.6961C39.4675 10.9678 39.365 11.216 39.1828 11.4407L38.4988 10.8632Z" fill="#E5E0FF"/>
<path d="M42.4061 14.5577L43.1066 14.2148L44.8996 17.8991L44.1992 18.242L43.5046 16.8147L39.5924 18.7297L39.1885 17.8999L43.1007 15.9849L42.4061 14.5577Z" fill="#E5E0FF"/>
<path d="M46.1149 26.074L46.1217 27.0043L42.7666 27.0291C42.3988 27.0318 42.0747 26.9473 41.7943 26.7755C41.5138 26.6054 41.2939 26.3646 41.1344 26.0531C40.9767 25.7417 40.8962 25.377 40.8932 24.9591C40.8901 24.5395 40.9651 24.1728 41.1183 23.859C41.2731 23.5453 41.4895 23.3013 41.7674 23.127C42.0453 22.9528 42.3682 22.8643 42.7359 22.8615L46.091 22.8367L46.0979 23.767L42.8205 23.7913C42.6065 23.7929 42.4163 23.8411 42.2498 23.9359C42.0834 24.0325 41.9531 24.1672 41.8591 24.34C41.7667 24.5129 41.7214 24.7172 41.7232 24.9529C41.7249 25.1886 41.7732 25.3922 41.8681 25.5637C41.9647 25.7369 42.0969 25.8697 42.2647 25.962C42.4326 26.0544 42.6235 26.0998 42.8375 26.0982L46.1149 26.074Z" fill="#E5E0FF"/>
<path d="M39.4974 32.0034L40.2823 30.4502L44.8605 32.7772L44.0597 34.3618C43.8297 34.8168 43.5405 35.1612 43.1921 35.3948C42.8444 35.6306 42.4554 35.7498 42.0252 35.7524C41.5949 35.755 41.1421 35.6355 40.6667 35.3938C40.1898 35.1514 39.8248 34.8543 39.5718 34.5026C39.318 34.1523 39.1835 33.7642 39.1684 33.3383C39.1525 32.9139 39.2621 32.4689 39.4974 32.0034ZM40.5803 31.6453L40.2353 32.3279C40.074 32.6472 39.9975 32.943 40.0059 33.2155C40.0158 33.4887 40.1099 33.7381 40.2881 33.9637C40.4678 34.19 40.7327 34.3922 41.0829 34.5702C41.4331 34.7482 41.7509 34.8422 42.0362 34.8522C42.3229 34.863 42.5769 34.7923 42.7979 34.6403C43.0197 34.4905 43.2091 34.2604 43.3659 33.95L43.7233 33.2428L40.5803 31.6453Z" fill="#E5E0FF"/>
<path d="M38.7736 41.2842L35.3563 37.4505L36.049 36.8295L39.4663 40.6632L38.7736 41.2842Z" fill="#E5E0FF"/>
<path d="M29.3534 43.4468C29.1604 42.9282 29.0921 42.4477 29.1487 42.0053C29.2042 41.565 29.3623 41.1845 29.6229 40.8639C29.8819 40.5438 30.222 40.3049 30.6432 40.1473C31.0644 39.9896 31.4781 39.9463 31.8845 40.0173C32.2899 40.0905 32.6582 40.2749 32.9893 40.5704C33.3195 40.8681 33.5808 41.2754 33.7732 41.7924C33.9662 42.311 34.035 42.7905 33.9794 43.2308C33.9229 43.6732 33.7651 44.0544 33.506 44.3745C33.2454 44.6952 32.9046 44.9344 32.4834 45.092C32.0622 45.2496 31.6493 45.2927 31.2444 45.2211C30.8381 45.15 30.4698 44.9657 30.1396 44.668C29.8085 44.3725 29.5464 43.9654 29.3534 43.4468ZM30.2294 43.1189C30.3652 43.484 30.5369 43.7705 30.7445 43.9784C30.9511 44.1884 31.1785 44.3202 31.4268 44.3737C31.6756 44.4287 31.9307 44.4073 32.1922 44.3094C32.4536 44.2115 32.6604 44.0601 32.8124 43.855C32.965 43.6515 33.0515 43.4023 33.0719 43.1072C33.0913 42.8144 33.0331 42.4854 32.8972 42.1203C32.7614 41.7553 32.5902 41.4677 32.3836 41.2577C32.176 41.0498 31.9478 40.9183 31.699 40.8633C31.4508 40.8098 31.1959 40.832 30.9345 40.9299C30.673 41.0277 30.466 41.1784 30.3134 41.3819C30.1614 41.587 30.0756 41.8359 30.0562 42.1288C30.0358 42.4238 30.0935 42.7539 30.2294 43.1189Z" fill="#E5E0FF"/>
<rect x="12.6924" y="12.6934" width="24.6154" height="24.6154" rx="12.3077" fill="#E5E0FF"/>
<path fill-rule="evenodd" clip-rule="evenodd" d="M28.5598 15.1934L23.8862 23.7617H26.6548L26.6561 23.7593H30.2734L20.9446 34.2305L25.6164 25.6656H20.9448V25.6645H19.231L28.5598 15.1934Z" fill="#1D00B3"/>
</svg>
