<svg width="24" height="24" viewBox="0 0 24 24" fill="none" xmlns="http://www.w3.org/2000/svg">
<rect width="24" height="24" fill="#101010"/>
<g id="Home" clip-path="url(#clip0_2649_3604)">
<rect width="1920" height="5319.08" transform="translate(-1394 -24)" fill="#F6F5FF"/>
<g id="#02 Hero">
<rect width="1920" height="647" transform="translate(-1394 -24)" fill="#F2F0FF"/>
</g>
<g id="navbar">
<rect width="1920" height="72" transform="translate(-1394 -24)" fill="#EEEBFF"/>
<g id="menu_right">
<g id="menu">
<g id="display mode">
<g id="logos:whatsapp-icon" clip-path="url(#clip1_2649_3604)">
<path id="Vector" d="M0.691517 11.8563C0.690959 13.8728 1.21784 15.8417 2.2197 17.5771L0.595703 23.5066L6.6638 21.9156C8.34215 22.8292 10.2226 23.308 12.1336 23.3081H12.1386C18.447 23.3081 23.5821 18.1748 23.5848 11.8653C23.586 8.80792 22.3965 5.93295 20.2351 3.76997C18.0742 1.60718 15.2003 0.415458 12.1381 0.414062C5.82901 0.414062 0.694122 5.54709 0.691517 11.8563Z" fill="#EEEBFF"/>
<path id="Vector_2" d="M0.28264 11.8527C0.281989 13.9417 0.827757 15.981 1.86534 17.7786L0.183105 23.9207L6.46878 22.2726C8.20069 23.2168 10.1506 23.7147 12.1348 23.7154H12.1399C18.6746 23.7154 23.9943 18.3975 23.9971 11.8621C23.9982 8.69488 22.7658 5.71656 20.5273 3.47609C18.2885 1.23591 15.3118 0.00130233 12.1399 0C5.60413 0 0.285338 5.31721 0.282733 11.8527H0.28264ZM4.0259 17.469L3.7912 17.0965C2.80459 15.5277 2.28385 13.7149 2.28459 11.8534C2.28673 6.4213 6.70757 2.00186 12.1437 2.00186C14.7762 2.00298 17.2503 3.02921 19.1111 4.89116C20.9718 6.7533 21.9958 9.22865 21.9951 11.8614C21.9927 17.2935 17.5718 21.7135 12.1399 21.7135H12.136C10.3674 21.7126 8.63278 21.2376 7.12004 20.34L6.76004 20.1265L3.02999 21.1045L4.0259 17.4689V17.469Z" fill="#1D00B3"/>
<path id="Vector_3" d="M9.17663 6.89771C8.95468 6.4044 8.72109 6.39445 8.51003 6.3858C8.33719 6.37836 8.13961 6.37892 7.94221 6.37892C7.74463 6.37892 7.42361 6.45324 7.15226 6.74952C6.88063 7.04608 6.11523 7.76273 6.11523 9.22031C6.11523 10.678 7.17691 12.0866 7.32491 12.2845C7.4731 12.482 9.37449 15.5689 12.3858 16.7564C14.8885 17.7433 15.3978 17.547 15.941 17.4975C16.4843 17.4482 17.6939 16.7811 17.9407 16.0892C18.1877 15.3975 18.1877 14.8046 18.1137 14.6807C18.0396 14.5572 17.842 14.4831 17.5457 14.335C17.2494 14.1868 15.7928 13.4701 15.5213 13.3712C15.2497 13.2724 15.0522 13.2231 14.8546 13.5198C14.657 13.8159 14.0897 14.4831 13.9167 14.6807C13.744 14.8787 13.571 14.9034 13.2749 14.7552C12.9784 14.6065 12.0243 14.2941 10.8923 13.2849C10.0115 12.4996 9.41691 11.5298 9.24407 11.2331C9.07123 10.937 9.22556 10.7764 9.37412 10.6288C9.50723 10.496 9.67049 10.2828 9.81877 10.1099C9.96649 9.93687 10.0158 9.81343 10.1146 9.61585C10.2135 9.41808 10.164 9.24506 10.09 9.09687C10.0158 8.94868 9.44007 7.48347 9.17663 6.89771Z" fill="#1D00B3"/>
</g>
</g>
</g>
</g>
</g>
</g>
<defs>
<clipPath id="clip0_2649_3604">
<rect width="1920" height="5319.08" fill="white" transform="translate(-1394 -24)"/>
</clipPath>
<clipPath id="clip1_2649_3604">
<rect width="23.82" height="24" fill="white" transform="translate(0.179688)"/>
</clipPath>
</defs>
</svg>
